<?xml version="1.0" standalone="no"?>
<!DOCTYPE svg PUBLIC "-//W3C//DTD SVG 20010904//EN"
 "http://www.w3.org/TR/2001/REC-SVG-20010904/DTD/svg10.dtd">
<svg version="1.0" xmlns="http://www.w3.org/2000/svg"
 width="6124.000000pt" height="5780.000000pt" viewBox="0 0 6124.000000 5780.000000"
 preserveAspectRatio="xMidYMid meet">
<metadata>
Created by potrace 1.16, written by Peter Selinger 2001-2019
</metadata>
<g transform="translate(0.000000,5780.000000) scale(0.100000,-0.100000)"
fill="#000000" stroke="none">
<path d="M39520 52425 l0 -1735 -6382 -1 -6383 0 -1245 -1309 -1245 -1309
-557 -1 -558 0 0 1310 0 1310 -2145 0 -2145 0 0 -1310 0 -1310 -4484 0 -4483
0 -3127 -3911 -3126 -3911 0 -3700 c0 -2214 4 -3698 9 -3696 7 2 8254 6768
10947 8979 l251 206 4333 -4243 c3688 -3611 4336 -4241 4349 -4231 9 7 2731
2314 6050 5127 3319 2813 6039 5115 6045 5114 6 -1 4946 -3176 10978 -7057
6031 -3882 10973 -7060 10982 -7063 15 -6 16 484 16 5682 l0 5689 -4851 4818
-4851 4817 -1539 0 -1539 0 0 1735 0 1735 -2650 0 -2650 0 0 -1735z"/>
<path d="M34210 38520 l0 -1170 1170 0 1170 0 0 1170 0 1170 -1170 0 -1170 0
0 -1170z"/>
<path d="M37440 38520 l0 -1170 1170 0 1170 0 0 1170 0 1170 -1170 0 -1170 0
0 -1170z"/>
<path d="M13380 36925 l0 -745 745 0 745 0 0 745 0 745 -745 0 -745 0 0 -745z"/>
<path d="M15440 36925 l0 -745 750 0 750 0 0 745 0 745 -750 0 -750 0 0 -745z"/>
<path d="M34210 35280 l0 -1170 1170 0 1170 0 0 1170 0 1170 -1170 0 -1170 0
0 -1170z"/>
<path d="M37440 35280 l0 -1170 1170 0 1170 0 0 1170 0 1170 -1170 0 -1170 0
0 -1170z"/>
<path d="M13380 34860 l0 -750 745 0 745 0 0 750 0 750 -745 0 -745 0 0 -750z"/>
<path d="M15440 34860 l0 -750 750 0 750 0 0 750 0 750 -750 0 -750 0 0 -750z"/>
<path d="M3640 22800 l0 -4620 1160 0 1160 0 0 3460 0 3461 1928 -4 c2112 -3
1999 0 2342 -63 1623 -298 2906 -1595 3179 -3215 55 -327 54 -268 58 -2016 l4
-1623 1155 0 1154 0 0 3460 0 3460 1838 0 c1835 0 1992 -3 2247 -36 1223 -160
2310 -898 2923 -1984 276 -489 444 -1039 492 -1615 6 -74 10 -731 10 -1702 l0
-1583 1160 0 1161 0 -4 1683 c-4 1831 -2 1777 -63 2196 -242 1680 -1168 3197
-2561 4193 -888 636 -1919 1023 -3013 1133 -310 31 -676 35 -3577 35 l-2923 0
-2 -700 -3 -700 -142 109 c-754 580 -1659 988 -2593 1170 -333 65 -622 97
-989 111 -148 6 -1485 10 -3178 10 l-2923 0 0 -4620z"/>
<path d="M25830 26260 l0 -1160 3535 0 3535 0 0 -3460 0 -3460 1160 0 1160 0
0 3460 0 3460 3530 0 3530 0 0 1160 0 1160 -8225 0 -8225 0 0 -1160z"/>
<path d="M47240 27409 c-1689 -75 -3208 -1081 -3946 -2614 -258 -537 -400
-1075 -445 -1690 -14 -197 -6 -604 16 -804 90 -815 389 -1584 868 -2234 142
-193 274 -346 461 -533 379 -379 763 -655 1231 -884 541 -265 1087 -413 1694
-460 91 -7 1822 -10 5308 -10 l5173 0 0 1155 0 1155 -5162 3 c-4854 3 -5170 4
-5278 20 -260 40 -482 108 -705 216 -699 341 -1176 1004 -1281 1781 -18 140
-18 429 1 577 87 665 464 1264 1030 1636 310 203 680 332 1055 366 79 8 1699
11 5228 11 l5112 0 0 1160 0 1160 -5097 -2 c-2804 0 -5172 -4 -5263 -9z"/>
<path d="M39719 17583 c-17 -38 -56 -124 -86 -193 -53 -119 -77 -160 -94 -160
-4 0 -55 28 -113 61 -59 34 -108 60 -110 58 -2 -2 23 -137 55 -299 32 -162 58
-307 59 -321 0 -27 -20 -43 -42 -33 -7 4 -69 66 -137 140 -68 74 -127 134
-130 134 -4 0 -19 -30 -35 -67 -48 -114 -35 -110 -231 -63 -92 22 -169 39
-170 38 -2 -2 22 -83 52 -181 43 -140 52 -181 43 -192 -7 -8 -41 -31 -76 -50
-36 -20 -62 -40 -59 -45 3 -5 134 -108 290 -230 157 -122 285 -228 285 -236 0
-7 -16 -55 -35 -106 -19 -51 -32 -94 -30 -96 2 -3 139 22 303 53 l299 58 292
-58 c160 -32 294 -55 298 -52 3 4 -11 52 -32 107 -22 58 -34 105 -29 109 5 5
135 106 289 226 154 119 280 222 280 228 0 6 -29 28 -65 48 -42 24 -66 44 -68
57 -2 11 20 96 48 187 28 92 50 169 48 171 -3 2 -78 -14 -168 -36 -99 -24
-169 -36 -178 -31 -8 4 -29 41 -47 82 -18 41 -37 74 -43 74 -5 0 -67 -62 -137
-137 -71 -76 -134 -138 -140 -138 -39 0 -37 24 26 340 33 171 59 314 56 317
-3 2 -53 -23 -111 -57 -83 -48 -109 -59 -123 -51 -10 5 -57 97 -107 210 -49
111 -91 201 -93 201 -2 0 -18 -30 -34 -67z"/>
<path d="M13400 12275 l0 -2715 360 0 360 0 2 1817 3 1816 1739 -1854 c957
-1020 1743 -1855 1748 -1857 4 -2 8 1227 8 2732 l0 2736 -365 0 -365 0 -2
-1807 -3 -1806 -1735 1826 c-954 1004 -1738 1826 -1742 1826 -5 1 -8 -1221 -8
-2714z"/>
<path d="M31542 14974 c-15 -30 -2292 -5381 -2292 -5388 0 -3 175 -6 388 -6
l388 0 196 438 197 437 1133 3 1133 2 197 -437 196 -438 392 -3 c313 -2 391 0
387 10 -75 180 -2289 5373 -2295 5385 -9 15 -11 14 -20 -3z m183 -2189 c63
-154 168 -424 235 -600 144 -378 281 -723 384 -965 l74 -175 -860 -3 c-474 -1
-863 0 -865 2 -2 2 48 126 110 277 63 151 160 393 217 539 231 592 316 807
423 1064 l112 269 28 -64 c16 -35 80 -190 142 -344z"/>
<path d="M48630 12275 l0 -2715 365 0 365 0 2 1813 3 1814 1725 -1839 c949
-1012 1733 -1846 1743 -1855 16 -15 17 115 17 2720 l0 2737 -360 0 -360 0 -2
-1810 -3 -1810 -1740 1830 c-957 1006 -1743 1830 -1747 1830 -5 0 -8 -1222 -8
-2715z"/>
<path d="M21305 14974 c-16 -2 -73 -9 -125 -15 -621 -69 -1218 -393 -1666
-902 -393 -449 -607 -933 -664 -1506 -13 -134 -13 -470 1 -602 53 -519 242
-982 565 -1385 104 -130 323 -348 454 -454 505 -404 1103 -599 1775 -577 418
14 769 98 1110 266 279 138 508 305 742 543 166 168 242 259 355 427 215 321
358 703 415 1111 27 192 24 587 -6 780 -89 582 -316 1040 -727 1470 -479 499
-1031 775 -1678 839 -100 10 -478 13 -551 5z m595 -754 c267 -46 520 -149 755
-308 433 -291 750 -755 850 -1246 89 -432 37 -865 -150 -1254 -102 -213 -228
-384 -421 -573 -287 -279 -600 -447 -976 -524 -296 -59 -665 -47 -937 31 -338
98 -580 238 -829 478 -382 370 -572 768 -613 1284 -40 518 118 1020 443 1407
337 402 781 655 1253 714 50 6 104 13 120 15 79 11 386 -4 505 -24z"/>
<path d="M44115 14974 c-16 -2 -73 -9 -125 -15 -742 -83 -1455 -537 -1905
-1214 -247 -372 -383 -759 -426 -1218 -15 -165 -7 -554 16 -697 74 -475 257
-900 540 -1250 401 -498 906 -831 1465 -969 409 -100 896 -106 1310 -15 388
85 796 287 1105 545 691 579 1032 1332 1002 2214 -24 697 -277 1287 -767 1788
-452 465 -939 721 -1542 813 -98 15 -598 28 -673 18z m446 -734 c593 -59 1110
-371 1459 -880 297 -435 403 -961 299 -1498 -55 -285 -206 -601 -402 -840
-420 -514 -1022 -781 -1674 -741 -563 34 -1036 277 -1411 724 -156 185 -285
420 -355 641 -66 211 -90 372 -89 619 0 323 54 572 183 844 185 390 532 741
927 940 314 158 699 227 1063 191z"/>
<path d="M55775 14974 c-337 -51 -593 -163 -832 -366 -251 -213 -429 -512
-505 -849 -20 -91 -23 -130 -23 -319 0 -193 3 -225 24 -310 45 -180 120 -343
224 -484 79 -108 251 -275 368 -358 181 -129 455 -256 734 -338 279 -83 418
-133 563 -205 230 -114 356 -217 442 -364 125 -213 105 -490 -52 -719 -111
-162 -338 -308 -582 -374 -121 -33 -298 -31 -419 6 -258 77 -474 250 -581 464
-20 40 -31 52 -44 48 -9 -3 -168 -37 -352 -76 -184 -39 -341 -73 -347 -75 -34
-12 115 -319 226 -466 248 -329 621 -561 1036 -646 139 -28 493 -25 628 5 298
66 583 208 800 399 245 215 424 524 494 853 22 107 25 390 4 495 -73 368 -299
678 -683 936 -200 135 -399 224 -748 335 -381 121 -535 189 -694 302 -110 80
-179 159 -231 267 -56 117 -70 177 -68 305 1 131 26 229 88 348 85 166 205
284 370 366 130 65 195 80 350 80 154 1 218 -14 350 -78 163 -81 290 -208 368
-368 24 -50 48 -87 57 -87 25 -2 694 141 704 150 12 11 -45 172 -99 282 -74
148 -151 253 -285 388 -224 225 -473 362 -782 430 -71 16 -138 21 -283 24
-104 2 -203 1 -220 -1z"/>
<path d="M8810 12255 l0 -2695 1530 0 1530 0 0 365 0 365 -1165 0 -1165 0 0
805 0 805 870 0 870 0 0 360 0 360 -870 0 -870 0 0 805 0 805 1165 0 1165 0 0
360 0 360 -1530 0 -1530 0 0 -2695z"/>
<path d="M3640 12260 l0 -2680 365 0 365 0 0 935 0 935 394 0 394 0 608 -935
609 -935 453 0 454 0 -20 33 c-10 17 -295 459 -632 981 -336 522 -614 954
-616 960 -2 6 67 39 159 75 289 114 398 178 527 310 224 230 399 566 457 881
22 117 25 576 5 705 -49 315 -165 547 -407 812 -234 255 -561 448 -910 537
-245 62 -203 60 -1247 63 l-958 4 0 -2681z m1951 1928 c227 -56 416 -151 526
-266 135 -141 218 -278 260 -427 26 -93 28 -113 28 -285 -1 -202 -9 -253 -65
-399 -43 -111 -117 -220 -224 -329 -147 -150 -263 -226 -418 -274 -72 -22 -84
-22 -700 -26 l-628 -3 0 1021 0 1021 558 -4 557 -3 106 -26z"/>
<path d="M24814 14922 c23 -72 2263 -5379 2271 -5380 9 -1 2285 5368 2285
5390 0 4 -172 8 -382 8 l-383 -1 -760 -1833 c-418 -1009 -762 -1832 -765
-1830 -2 3 -345 827 -761 1832 l-756 1827 -377 3 c-364 2 -377 2 -372 -16z"/>
<path d="M34270 14580 l0 -360 715 0 715 0 0 -2320 0 -2320 365 0 365 0 0
2320 0 2320 715 0 715 0 0 360 0 360 -1795 0 -1795 0 0 -360z"/>
<path d="M39390 12260 l0 -2680 365 0 365 0 0 2680 0 2680 -365 0 -365 0 0
-2680z"/>
<path d="M17780 6289 c-285 -32 -427 -164 -470 -435 -14 -87 -14 -356 0 -436
40 -230 148 -369 347 -447 29 -11 212 -54 407 -95 195 -42 378 -84 406 -95
165 -63 223 -174 224 -431 2 -348 -88 -444 -437 -471 -134 -10 -788 2 -873 16
-31 5 -31 5 -37 -47 -4 -29 -7 -74 -7 -99 l0 -46 83 -11 c223 -31 329 -37 657
-37 314 1 354 2 441 22 228 50 351 160 403 360 26 101 38 289 27 421 -22 242
-81 371 -215 466 -109 78 -141 88 -541 172 -347 72 -400 86 -465 119 -132 68
-189 217 -177 465 12 244 75 337 256 376 77 16 578 19 851 4 111 -5 167 -5
171 2 13 21 21 171 9 178 -16 10 -255 39 -415 50 -166 12 -539 11 -645 -1z"/>
<path d="M24840 6294 c-481 -60 -699 -299 -776 -849 -21 -155 -29 -575 -15
-765 49 -636 231 -936 616 -1017 101 -21 307 -18 421 6 172 36 366 133 493
248 l57 51 13 -121 c18 -172 7 -157 112 -157 l89 0 0 745 0 745 -125 0 -125 0
0 -513 0 -513 -82 -61 c-120 -88 -230 -148 -338 -184 -81 -27 -114 -33 -220
-37 -205 -8 -328 33 -437 145 -94 96 -163 277 -195 508 -9 68 -13 213 -13 455
0 299 3 372 18 465 53 312 144 470 321 555 133 64 210 75 506 74 225 -1 439
-12 566 -30 l42 -6 13 89 c8 48 14 92 14 98 0 10 -79 28 -230 51 -97 15 -640
28 -725 18z"/>
<path d="M9530 6280 c-80 -4 -189 -11 -243 -15 l-97 -7 0 -1283 0 -1282 48 -6
c253 -32 1037 -33 1172 -2 320 73 504 265 588 615 46 190 56 306 57 660 0 360
-8 463 -52 660 -88 402 -290 597 -673 655 -102 16 -525 18 -800 5z m789 -234
c200 -52 323 -173 397 -389 105 -306 105 -1058 0 -1364 -73 -215 -192 -331
-393 -384 -96 -26 -364 -35 -677 -24 l-206 7 0 1084 0 1083 43 4 c23 2 206 3
407 2 306 -2 375 -5 429 -19z"/>
<path d="M36535 6280 c-77 -4 -168 -11 -203 -15 l-62 -7 0 -1283 0 -1282 38
-6 c103 -17 519 -29 817 -24 283 4 343 8 424 25 304 67 423 225 438 583 19
446 -114 674 -429 737 l-83 16 50 8 c188 27 307 134 360 324 26 91 32 354 11
474 -50 290 -215 415 -596 449 -126 12 -544 12 -765 1z m805 -228 c152 -35
246 -105 291 -217 22 -56 24 -74 24 -245 0 -168 -3 -190 -23 -241 -43 -109
-120 -170 -254 -205 -52 -14 -135 -18 -460 -21 l-398 -5 0 477 0 477 388 -5
c213 -3 407 -9 432 -15z m43 -1155 c183 -43 278 -129 324 -290 20 -73 29 -307
14 -391 -35 -202 -120 -285 -328 -321 -66 -12 -174 -15 -479 -15 l-394 0 0
521 0 521 398 -5 c317 -3 411 -7 465 -20z"/>
<path d="M51620 6280 c-80 -4 -189 -11 -243 -15 l-97 -7 0 -1283 0 -1282 48
-6 c253 -32 1037 -33 1172 -2 376 85 556 323 627 825 25 178 25 751 0 926 -76
538 -274 774 -707 839 -102 16 -525 18 -800 5z m789 -234 c233 -61 368 -221
430 -511 53 -246 60 -754 15 -1038 -54 -343 -187 -521 -441 -588 -96 -26 -364
-35 -677 -24 l-206 7 0 1084 0 1083 43 4 c23 2 206 3 407 2 306 -2 375 -5 429
-19z"/>
<path d="M13788 6246 c-149 -43 -242 -129 -288 -265 -20 -61 -20 -71 -18
-1024 l3 -962 23 -57 c45 -110 146 -196 277 -233 54 -16 109 -17 625 -12 311
3 577 9 593 13 25 6 27 10 27 54 0 26 -3 68 -6 94 l-7 46 -531 0 c-326 0 -548
4 -576 11 -71 16 -114 50 -147 116 l-28 58 -3 433 -3 432 576 0 575 0 0 105 0
105 -576 0 -575 0 3 353 c3 313 5 356 21 392 24 53 63 93 112 116 37 17 76 19
596 19 l556 0 7 53 c3 28 6 73 6 98 l0 47 -42 6 c-24 3 -293 8 -598 11 -450 4
-564 2 -602 -9z"/>
<path d="M21350 4975 l0 -1285 125 0 125 0 0 1285 0 1285 -125 0 -125 0 0
-1285z"/>
<path d="M28365 6251 c-53 -22 -50 53 -53 -1303 l-2 -1258 125 0 125 0 0 1165
0 1165 28 -1 c26 -1 50 -47 591 -1132 394 -790 574 -1142 596 -1164 l33 -33
179 0 c201 0 215 4 233 68 6 24 10 452 10 1270 l0 1232 -130 0 -130 0 1 -997
c1 -549 4 -1073 8 -1166 l6 -167 -32 0 -33 0 -569 1138 c-349 696 -579 1147
-596 1162 -26 24 -30 25 -198 27 -95 1 -181 -1 -192 -6z"/>
<path d="M40400 5356 c0 -896 3 -979 35 -1126 69 -315 244 -491 550 -555 189
-39 525 -35 696 8 141 37 229 85 320 176 88 89 135 176 173 321 48 180 49 205
53 1168 l4 912 -130 0 -130 0 -4 -922 c-3 -901 -4 -925 -25 -1017 -42 -187
-123 -308 -251 -375 -109 -57 -179 -70 -381 -70 -139 0 -190 3 -245 18 -187
50 -301 152 -361 325 -52 149 -54 195 -54 1154 l0 887 -125 0 -125 0 0 -904z"/>
<path d="M44740 4975 l0 -1285 125 0 125 0 0 1285 0 1285 -125 0 -125 0 0
-1285z"/>
<path d="M47522 5133 l3 -1128 23 -58 c44 -109 120 -185 229 -229 l58 -23 525
1 c289 0 551 4 583 8 l57 7 0 57 c0 31 -3 74 -6 94 l-6 37 -517 3 c-502 3
-517 4 -561 24 -54 26 -93 65 -117 119 -17 38 -18 104 -21 1128 l-3 1087 -124
0 -125 0 2 -1127z"/>
<path d="M33201 5364 c-128 -34 -232 -121 -290 -243 -35 -74 -36 -79 -36 -196
0 -114 2 -123 32 -188 42 -89 125 -175 207 -216 230 -113 500 -22 613 207 38
75 38 77 38 197 0 120 0 122 -37 196 -99 201 -315 300 -527 243z"/>
</g>
</svg>
